Coordinates
version=1
nRows=43
nColumns=12
inDegrees=yes

Units are S.I. units (second, meters, Newtons, ...)
Angles are in degrees

endheader
time	SC_y	SC_z	SC_x	AC_y	AC_z	AC_x	GH_y	GH_z	GH_yy	EL_x	PS_y
       0.0              -21.66         -2.242          25.86           68.3          1.741          6.713         -165.2         -4.778          150.3          7.606          16.91
   0.04352              -21.67         -2.238          25.85           68.3          1.741          6.715         -165.2          -4.77          150.3          7.621          16.92
   0.08704              -21.67         -2.234          25.85           68.3          1.742          6.717         -165.2         -4.761          150.2          7.637          16.92
    0.1306              -21.67         -2.229          25.85           68.3          1.743          6.719         -165.2         -4.751          150.2          7.655          16.92
    0.1741              -21.68         -2.225          25.85           68.3          1.744          6.721         -165.2         -4.741          150.2          7.673          16.93
    0.2176              -21.69          -2.22          25.84           68.3          1.745          6.724         -165.2          -4.73          150.1          7.693          16.93
    0.2611              -21.69         -2.214          25.84           68.3          1.746          6.726         -165.1         -4.719          150.1          7.714          16.93
    0.3046               -21.7         -2.208          25.84           68.3          1.747          6.729         -165.1         -4.707          150.1          7.736          16.94
    0.3481               -21.7         -2.202          25.83           68.3          1.748          6.732         -165.1         -4.693          150.0           7.76          16.94
    0.3917              -21.71         -2.195          25.83           68.3           1.75          6.735         -165.1         -4.679          150.0          7.786          16.94
    0.4352              -21.72         -2.188          25.82          68.29          1.751          6.738         -165.0         -4.664          149.9          7.814          16.95
    0.4787              -21.73         -2.181          25.82          68.29          1.752          6.742         -165.0         -4.647          149.9          7.844          16.95
    0.5222              -21.74         -2.172          25.81          68.29          1.754          6.745         -165.0          -4.63          149.8          7.876          16.96
    0.5657              -21.75         -2.163          25.81          68.29          1.756           6.75         -164.9         -4.611          149.7           7.91          16.97
    0.6093              -21.76         -2.154           25.8          68.29          1.757          6.754         -164.9          -4.59          149.7          7.948          16.97
    0.6528              -21.77         -2.143          25.79          68.29          1.759          6.759         -164.9         -4.567          149.6          7.989          16.98
    0.6963              -21.78         -2.132          25.79          68.28          1.762          6.764         -164.8         -4.543          149.5          8.033          16.99
    0.7398              -21.79         -2.119          25.78          68.28          1.764           6.77         -164.8         -4.517          149.4          8.081           17.0
    0.7833              -21.81         -2.106          25.77          68.28          1.767          6.776         -164.7         -4.488          149.3          8.134          17.01
    0.8268              -21.82         -2.091          25.76          68.28          1.769          6.783         -164.7         -4.456          149.2          8.192          17.02
    0.8704              -21.84         -2.074          25.75          68.27          1.773          6.791         -164.6         -4.421          149.1          8.255          17.03
    0.9139              -21.86         -2.056          25.74          68.27          1.776          6.799         -164.5         -4.383          148.9          8.325          17.04
    0.9574              -21.88         -2.036          25.72          68.27           1.78          6.808         -164.5          -4.34          148.8          8.402          17.05
     1.001              -21.91         -2.014          25.71          68.26          1.784          6.819         -164.4         -4.293          148.6          8.487          17.07
     1.044              -21.93          -1.99          25.69          68.26          1.788           6.83         -164.3         -4.241          148.5          8.582          17.08
     1.088              -21.96         -1.963          25.68          68.25          1.794          6.843         -164.2         -4.183          148.3          8.687           17.1
     1.131              -21.99         -1.932          25.66          68.25          1.799          6.857         -164.1         -4.117          148.0          8.806          17.12
     1.175              -22.03         -1.898          25.63          68.24          1.806          6.873         -163.9         -4.044          147.8          8.939          17.15
     1.219              -22.07         -1.859          25.61          68.23          1.813          6.891         -163.8         -3.961          147.5           9.09          17.17
     1.262              -22.12         -1.814          25.58          68.22          1.822          6.911         -163.6         -3.867          147.2          9.261           17.2
     1.306              -22.17         -1.764          25.55          68.21          1.831          6.935         -163.4         -3.759          146.8          9.456          17.24
     1.349              -22.24         -1.706          25.51           68.2          1.842          6.962         -163.2         -3.636          146.4           9.68          17.28
     1.393              -22.31         -1.639          25.46          68.19          1.855          6.993         -163.0         -3.493          145.9          9.939          17.32
     1.436              -22.39         -1.562          25.41          68.18           1.87          7.029         -162.7         -3.328          145.3          10.24          17.37
      1.48              -22.49         -1.471          25.35          68.16          1.887          7.071         -162.3         -3.134          144.7          10.59          17.43
     1.523               -22.6         -1.364          25.28          68.14          1.907           7.12         -161.9         -2.906          143.9          11.01          17.51
     1.567              -22.74         -1.236           25.2          68.11          1.931          7.179         -161.4         -2.635          142.9           11.5          17.59
      1.61               -22.9         -1.084           25.1          68.08           1.96           7.25         -160.9         -2.309          141.8          12.09           17.7
     1.654               -23.1        -0.8993          24.98          68.05          1.995          7.336         -160.2         -1.916          140.5           12.8          17.82
     1.697              -23.34        -0.6738          24.83          68.01          2.038           7.44         -159.3         -1.435          138.8          13.68          17.97
     1.741              -23.64        -0.3956          24.65          67.95          2.091          7.569         -158.3        -0.8421          136.8          14.75          18.16
     1.784              -24.01       -0.04856          24.43          67.89          2.156           7.73         -157.0        -0.1023          134.2           16.1           18.4
     1.828              -24.48         0.3886          24.14          67.81          2.239          7.933         -155.3         0.8295          131.0          17.79          18.69
